Coordinates
version=1
nRows=22
nColumns=24
inDegrees=yes

Units are S.I. units (second, meters, Newtons, ...)
Angles are in degrees.

endheader
time	pelvis_tilt	pelvis_list	pelvis_rotation	pelvis_tx	pelvis_ty	pelvis_tz	hip_flexion_r	hip_adduction_r	hip_rotation_r	knee_angle_r	ankle_angle_r	subtalar_angle_r	mtp_angle_r	hip_flexion_l	hip_adduction_l	hip_rotation_l	knee_angle_l	ankle_angle_l	subtalar_angle_l	mtp_angle_l	lumbar_extension	lumbar_bending	lumbar_rotation
      0.71700000	     -5.70494183	      5.21509647	      8.23264492	     -0.06962340	      0.96557862	      0.24663641	     38.39240255	    -10.03649760	     -9.01409252	     -5.12441029	      6.66435944	     -7.91015693	     -0.71208934	    -14.77067396	      6.20067204	     -1.51719369	     -3.45509746	     15.12521131	     -2.10961146	     -0.48638135	     -5.60931390	     -4.87860263	     -5.76483404
      0.72116667	     -5.69055637	      5.18109009	      8.27184644	     -0.06387571	      0.96440008	      0.24690703	     38.25292054	     -9.99246919	     -8.84770249	     -5.66059838	      6.80985747	     -7.94341072	     -6.68896741	    -15.00962190	      6.04843651	     -1.68872449	     -3.72524038	     15.37053729	     -1.60905074	     -6.76097011	     -5.58776747	     -4.77315308	     -5.57723667
      0.72533333	     -5.76568948	      5.17255348	      8.46541975	     -0.05822430	      0.96322239	      0.24686362	     38.17880564	    -10.08185874	     -8.80525839	     -6.20530247	      6.82531850	     -8.07896671	     -6.66205060	    -15.14512070	      5.91854793	     -1.53095109	     -4.00185830	     15.43878135	     -1.50300771	     -6.78966380	     -5.49628648	     -4.69336511	     -5.81918471
      0.72950000	     -5.79803643	      5.14451819	      8.60536139	     -0.05244483	      0.96211534	      0.24689659	     38.06930831	    -10.12045496	     -8.80088562	     -6.77888746	      6.84783800	     -8.11585733	     -6.62836333	    -15.33695651	      5.76957762	     -1.46373472	     -4.25510268	     15.47326719	     -1.36374669	     -6.80798691	     -5.42345299	     -4.58436041	     -5.92965328
      0.73366667	     -5.83689495	      5.10893006	      8.69797151	     -0.04658940	      0.96101397	      0.24705802	     37.97626502	    -10.11574178	     -8.78075207	     -7.35576002	      6.78265711	     -8.17688160	     -6.61689625	    -15.53211032	      5.62150048	     -1.41934507	     -4.48372372	     15.44273562	     -1.29938011	     -6.81067827	     -5.33666290	     -4.49596083	     -5.95419197
      0.73783333	     -5.82074961	      5.02231426	      8.86676966	     -0.04071974	      0.96010903	      0.24708745	     37.77126965	    -10.10758175	     -8.87547387	     -7.86556102	      6.66130984	     -8.22113230	     -6.53170988	    -15.73211513	      5.38137038	     -1.41273476	     -4.80619981	     15.52455439	     -0.97009475	     -6.81090340	     -5.30293248	     -4.29815441	     -6.14827913
      0.74200000	     -5.86130761	      4.99009570	      8.92514080	     -0.03481365	      0.95906986	      0.24734025	     37.68588151	    -10.07919228	     -8.83449219	     -8.42785342	      6.52158750	     -8.26912517	     -6.52398496	    -15.91653742	      5.24166218	     -1.37028736	     -5.04943031	     15.43610345	     -0.93970249	     -6.81022203	     -5.21912825	     -4.18562211	     -6.14858271
      0.74616667	     -5.73189464	      4.79801402	      9.04551321	     -0.02877264	      0.95848099	      0.24754074	     37.31256270	     -9.91167925	     -8.98197728	     -8.79996500	      6.17553420	     -8.50347886	     -6.30650310	    -16.22081666	      4.86729494	     -1.47632272	     -5.35892420	     15.40863792	     -0.55956516	     -6.75582960	     -5.29798538	     -3.87901931	     -6.31733348
      0.75033333	     -5.73480204	      4.67562729	      9.13224810	     -0.02277171	      0.95767823	      0.24779546	     37.13702101	     -9.80258216	     -9.05867265	     -9.22967472	      5.79364046	     -8.70736604	     -6.15400627	    -16.39533631	      4.60890450	     -1.47286989	     -5.66949515	     15.32164792	     -0.45136725	     -6.70311595	     -5.23597350	     -3.67172727	     -6.30588317
      0.75450000	     -5.69676650	      4.52137841	      9.18269509	     -0.01671272	      0.95700301	      0.24814526	     36.91137484	     -9.63154801	     -9.14213803	     -9.59756273	      5.27888275	     -8.95950115	     -5.95767166	    -16.60322017	      4.31203713	     -1.53870962	     -5.98251047	     15.19130025	     -0.27261579	     -6.62131075	     -5.21451593	     -3.42252376	     -6.34539102
      0.75866667	     -5.68591137	      4.36792032	      9.20602402	     -0.01060398	      0.95633204	      0.24851768	     36.73341580	     -9.45205359	     -9.24155324	     -9.95608744	      4.66232336	     -9.22177732	     -5.80024508	    -16.79553451	      4.03233198	     -1.57075936	     -6.26748024	     15.02420291	     -0.14106235	     -6.54529026	     -5.14143965	     -3.18137905	     -6.33473796
      0.76283333	     -5.52111989	      4.15741086	      9.15402790	     -0.00449172	      0.95596816	      0.24915098	     36.37808639	     -9.13673339	     -9.28653204	    -10.21033460	      3.90140064	     -9.61479213	     -5.39051454	    -17.10544514	      3.66365682	     -1.82176580	     -6.61324936	     14.84899220	      0.16746300	     -6.33035492	     -5.27547946	     -2.85937527	     -6.34189451
      0.76700000	     -5.46277723	      3.95498334	      9.10536753	      0.00164489	      0.95550554	      0.24974666	     36.16092718	     -8.84733244	     -9.34278995	    -10.47359731	      3.02511236	    -10.06481298	     -4.91651760	    -17.30181913	      3.33198168	     -1.97914655	     -6.96400254	     14.61835560	      0.33200442	     -6.05525639	     -5.26770283	     -2.56387107	     -6.28960643
      0.77116667	     -5.52143976	      3.76356695	      9.09247768	      0.00778515	      0.95494461	      0.25020339	     36.09533243	     -8.62132796	     -9.47238606	    -10.77481307	      2.13777365	    -10.41454515	     -4.71903931	    -17.35448343	      3.03784374	     -2.02869140	     -7.35560465	     14.31607279	      0.31431216	     -5.92857549	     -5.11553050	     -2.28397867	     -6.19842571
      0.77533333	     -5.37811115	      3.51486109	      8.89669408	      0.01399553	      0.95469835	      0.25117820	     35.83108227	     -8.17712588	     -9.42163727	    -10.99026046	      1.02774397	    -11.02697265	     -4.16919406	    -17.61864307	      2.66449708	     -2.40585148	     -7.73298902	     14.04339358	      0.64767737	     -5.55778384	     -5.21654558	     -1.95431945	     -6.08804722
      0.77950000	     -5.35476419	      3.30176429	      8.73581459	      0.02016668	      0.95435468	      0.25204540	     35.72601710	     -7.81404674	     -9.39872020	    -11.25630699	     -0.11478932	    -11.63162790	     -3.58292655	    -17.73364484	      2.35475003	     -2.65644156	     -8.16047727	     13.69732670	      0.76411317	     -5.12586901	     -5.17171115	     -1.66137420	     -5.94899768
      0.78366667	     -5.43146253	      3.08992695	      8.54003811	      0.02641721	      0.95389166	      0.25291924	     35.77479874	     -7.46255793	     -9.40331887	    -11.58958633	     -1.24901743	    -12.14870327	      2.49975338	    -17.73327737	      2.07758474	     -2.93209580	     -8.60593082	     13.22248970	      0.78306311	     -0.05030944	     -4.99788400	     -1.38937930	     -5.67137439
      0.78783333	     -5.37657229	      2.85913338	      8.36063945	      0.03259011	      0.95376663	      0.25379203	     35.67153019	     -7.08331387	     -9.40803664	    -11.89524356	     -2.42141516	    -12.73004438	      2.47688353	    -17.84151319	      1.75579086	     -3.16676624	     -9.09680703	     12.78904881	      0.82656893	      0.07821192	     -5.00242596	     -1.06984281	     -5.61871683
      0.79200000	     -5.42419574	      2.63277857	      8.17317887	      0.03880833	      0.95354344	      0.25463660	     35.70837883	     -6.72666248	     -9.40526748	    -12.26463794	     -3.50613758	    -13.23009273	      2.48324196	    -17.82043977	      1.46610477	     -3.36960055	     -9.63210671	     12.26992404	      0.73898639	      0.17898258	     -4.87424311	     -0.75996990	     -5.46064458
      0.79616667	     -5.39911871	      2.41428625	      7.80095308	      0.04505886	      0.95337410	      0.25601748	     35.72881307	     -6.23410804	     -9.18151327	    -12.67969757	     -4.65438508	    -13.90601332	      2.54368090	    -17.87227854	      1.18853884	     -3.88325419	    -10.19550292	     11.80306545	      0.98723058	      0.43807333	     -4.85457195	     -0.50299251	     -5.16919392
      0.80033333	     -5.44287651	      2.19959999	      7.48397550	      0.05132264	      0.95321114	      0.25720055	     35.82947394	     -5.80561943	     -9.02914073	    -13.15019047	     -5.68670313	    -14.45571534	      2.62720935	    -17.82256217	      0.92672150	     -4.26944537	    -10.80691643	     11.23452701	      1.03608265	      0.75498359	     -4.74326652	     -0.23627891	     -4.91595904
      0.80450000	     -5.49431601	      1.99455354	      7.14122114	      0.05759195	      0.95308739	      0.25845046	     35.95928867	     -5.37440266	     -8.84311622	    -13.67155655	     -6.63743276	    -14.96881302	      2.73223732	    -17.73916446	      0.67928232	     -4.68013920	    -11.47029036	     10.62691593	      1.07151490	      1.14272862	     -4.63170575	      0.01299046	     -4.66270066
